<svg width="332" height="269" viewBox="0 0 332 269" fill="none" xmlns="http://www.w3.org/2000/svg">
<g clip-path="url(#clip0)">
<path d="M50.4244 216.395C50.4244 232.659 40.5452 238.339 28.3597 238.339C28.076 238.339 27.7938 238.336 27.5132 238.328C26.9488 238.316 26.3891 238.292 25.837 238.253C14.8384 237.492 6.29346 231.52 6.29346 216.395C6.29346 200.743 26.7264 180.991 28.2677 179.525L28.2707 179.524C28.329 179.466 28.3597 179.438 28.3597 179.438C28.3597 179.438 50.4244 200.129 50.4244 216.395Z" fill="#3F3D56"/>
<path d="M27.5545 235.85L35.6256 224.813L27.5346 237.061L27.5131 238.328C26.9488 238.316 26.389 238.292 25.837 238.253L26.7065 221.981L26.7003 221.855L26.7157 221.831L26.797 220.294L18.686 208.015L26.8215 219.141L26.8414 219.467L27.4993 207.173L20.5554 194.485L27.5837 205.013L28.2676 179.525L28.2707 179.438V179.524L28.1572 199.623L35.0689 191.654L28.1281 201.353L27.9456 212.361L34.4003 201.798L27.918 213.982L27.8168 220.102L37.1868 205.397L27.7815 222.238L27.5545 235.85Z" fill="#F2F2F2"/>
<g opacity="0.7">
<path opacity="0.7" d="M306.347 102.394V98.4766H286.336V116.593C286.336 117.606 286.747 118.577 287.479 119.293C288.211 120.01 289.203 120.412 290.238 120.412H302.445C303.479 120.412 304.472 120.01 305.204 119.293C305.936 118.577 306.347 117.606 306.347 116.593V112.578C307.726 112.578 309.05 112.041 310.026 111.086C311.001 110.132 311.549 108.836 311.549 107.486C311.549 106.135 311.001 104.84 310.026 103.885C309.05 102.93 307.726 102.394 306.347 102.394ZM306.347 110.619V104.352C307.196 104.352 308.01 104.682 308.611 105.27C309.211 105.858 309.548 106.655 309.548 107.486C309.548 108.317 309.211 109.114 308.611 109.702C308.01 110.289 307.196 110.619 306.347 110.619Z" fill="url(#paint0_linear)"/>
</g>
<path d="M305.703 103.007C304.763 103.007 303.845 103.279 303.064 103.79C302.282 104.301 301.674 105.027 301.314 105.877C300.954 106.726 300.86 107.661 301.044 108.563C301.227 109.465 301.679 110.293 302.344 110.944C303.008 111.594 303.854 112.037 304.776 112.216C305.697 112.396 306.653 112.303 307.521 111.952C308.389 111.6 309.13 111.004 309.652 110.239C310.174 109.475 310.453 108.576 310.453 107.656C310.453 106.423 309.952 105.24 309.062 104.369C308.171 103.497 306.963 103.007 305.703 103.007ZM305.703 110.517C305.124 110.517 304.559 110.349 304.079 110.035C303.598 109.721 303.223 109.274 303.002 108.751C302.781 108.228 302.723 107.653 302.836 107.098C302.948 106.543 303.227 106.033 303.636 105.633C304.044 105.233 304.565 104.96 305.132 104.85C305.699 104.74 306.287 104.796 306.821 105.013C307.355 105.229 307.812 105.596 308.133 106.067C308.454 106.537 308.626 107.09 308.626 107.656C308.626 108.415 308.318 109.143 307.77 109.679C307.222 110.216 306.478 110.517 305.703 110.517Z" fill="#2F9EFF"/>
<path opacity="0.1" d="M305.703 103.007C304.763 103.007 303.845 103.279 303.064 103.79C302.282 104.301 301.674 105.027 301.314 105.877C300.954 106.726 300.86 107.661 301.044 108.563C301.227 109.465 301.679 110.293 302.344 110.944C303.008 111.594 303.854 112.037 304.776 112.216C305.697 112.396 306.653 112.303 307.521 111.952C308.389 111.6 309.13 111.004 309.652 110.239C310.174 109.475 310.453 108.576 310.453 107.656C310.453 106.423 309.952 105.24 309.062 104.369C308.171 103.497 306.963 103.007 305.703 103.007ZM305.703 110.517C305.124 110.517 304.559 110.349 304.079 110.035C303.598 109.721 303.223 109.274 303.002 108.751C302.781 108.228 302.723 107.653 302.836 107.098C302.948 106.543 303.227 106.033 303.636 105.633C304.044 105.233 304.565 104.96 305.132 104.85C305.699 104.74 306.287 104.796 306.821 105.013C307.355 105.229 307.812 105.596 308.133 106.067C308.454 106.537 308.626 107.09 308.626 107.656C308.626 108.415 308.318 109.143 307.77 109.679C307.222 110.216 306.478 110.517 305.703 110.517Z" fill="black"/>
<path d="M287.432 99.4304H305.703V115.953C305.703 116.883 305.325 117.774 304.654 118.432C303.982 119.089 303.071 119.458 302.121 119.458H291.014C290.064 119.458 289.153 119.089 288.481 118.432C287.81 117.774 287.432 116.883 287.432 115.953V99.4304Z" fill="white"/>
<path opacity="0.1" d="M302.414 99.4304V115.971C302.414 116.896 302.039 117.783 301.371 118.437C300.702 119.091 299.796 119.458 298.851 119.458H300.678C301.623 119.458 302.529 119.091 303.198 118.437C303.866 117.783 304.241 116.896 304.241 115.971V99.4304H302.414Z" fill="black"/>
<path d="M291.038 86.0987C290.882 86.1036 290.728 86.142 290.589 86.2113C290.449 86.2806 290.327 86.379 290.231 86.4996C289.991 86.9249 290.426 87.4043 290.822 87.6965C291.554 88.2363 292.326 88.7665 292.823 89.52C293.321 90.2734 293.478 91.3249 292.933 92.0469C292.223 92.9898 290.528 93.1926 290.364 94.353C290.259 95.098 290.917 95.7337 291.584 96.1075C293.23 97.0302 295.351 97.2763 296.543 98.7202C297.036 97.7277 298.139 97.154 299.239 96.909C300.338 96.664 301.48 96.6823 302.595 96.5161C302.777 96.5127 302.956 96.4674 303.117 96.3839C303.278 96.3003 303.416 96.1809 303.521 96.0353C303.833 95.4163 302.945 94.674 303.251 94.0526C303.485 93.5797 304.17 93.6164 304.67 93.427C305.485 93.1186 305.821 92.0922 305.59 91.2676C305.359 90.4429 304.705 89.7985 304.019 89.2701C302.167 87.8462 299.941 87.0088 297.689 86.4065C296.642 86.1263 295.412 85.687 294.325 85.6446C293.275 85.6036 292.077 85.9247 291.038 86.0987Z" fill="#EEEEEE"/>
<path d="M162.804 123.681L124.601 240.167" stroke="#E0E0E0" stroke-width="8" stroke-miterlimit="10"/>
<g opacity="0.7">
<path opacity="0.7" d="M192.402 253.286C187.703 253.552 183.517 257.405 183.517 257.405L181.493 252.491L181.327 252.543C182.316 248.306 202.436 160.966 182.295 153.436C166.818 147.651 150.402 140.491 137.54 140.76V120.127H155.572V119.392H169.847C172.584 117.479 168.608 116.163 164.164 115.341C164.345 115.138 164.504 114.918 164.64 114.683L187.503 74.535C187.503 74.535 192.763 66.0784 189.382 62.034C186.001 57.9896 181.117 72.329 181.117 72.329L162.334 98.8017C162.334 98.8017 143.377 79.4628 131.317 69.8454C129.979 68.5473 128.469 67.4305 126.828 66.5246C124.626 65.0668 122.96 64.3115 122.138 64.6077C122.13 64.6108 122.123 64.6158 122.115 64.619C120.287 64.1238 118.4 63.8727 116.503 63.8724H115.001V60.8556C118.367 59.7676 121.446 57.9661 124.019 55.5797C126.593 53.1933 128.596 50.2807 129.887 47.0495C132.007 43.6142 133.301 39.7526 133.672 35.7562C134.044 31.7598 133.483 27.733 132.033 23.9797C132.257 23.9538 132.473 23.8806 132.665 23.7653C133.346 23.3367 133.413 22.3989 133.347 21.6096C133.1 18.9605 132.198 16.4101 130.718 14.1789C129.238 11.9476 127.225 10.1028 124.854 8.80389C122.95 7.78524 120.77 7.08339 119.367 5.46446C118.161 4.07335 117.654 2.12773 116.195 0.992687C114.461 -0.355763 111.957 -0.123947 109.829 0.477749C107.462 1.14819 105.219 2.18412 103.185 3.54647C100.884 5.08908 98.8068 7.07091 96.1576 7.92476C94.2751 8.53146 92.2336 8.51936 90.3392 9.08932C88.8854 9.5402 87.5596 10.3178 86.4678 11.36C85.376 12.4022 84.5486 13.68 84.0518 15.0912C83.5695 16.6073 83.387 18.1994 83.5139 19.7824C82.3619 21.6671 81.4554 23.6855 80.8155 25.7906C80.6738 25.8656 80.5312 25.9389 80.3908 26.0161L80.8027 25.8349C79.3658 30.5818 79.3181 35.628 80.6649 40.4001C82.0118 45.1723 84.6992 49.479 88.4218 52.831C91.3634 56.5792 95.3886 59.375 99.9744 60.8556V64.5052C96.7027 65.1959 93.5814 66.4471 90.7545 68.201L90.7505 68.1962C90.7505 68.1962 90.5108 68.3414 90.1003 68.6115C90.0592 68.6386 90.0181 68.6657 89.9771 68.693C87.1974 70.5395 77.8826 77.2867 78.1972 84.5776C78.1849 84.8579 78.1866 85.1391 78.2021 85.4212C77.6935 87.5281 77.436 89.6857 77.4348 91.8506V144.761C77.4276 150.608 79.435 156.286 83.1326 160.877C75.2933 162.597 70.2972 165.198 70.2972 168.109C70.3366 168.352 70.3366 168.601 70.2972 168.844C70.2972 174.022 86.107 178.22 105.609 178.22C107.967 178.22 110.271 178.158 112.499 178.041L134.535 195.501L99.2231 251.02C99.2231 251.02 87.5776 259.844 96.5934 262.786C105.609 265.727 124.017 267.933 124.017 267.933C124.017 267.933 127.022 262.786 122.89 260.58C118.757 258.373 113.123 259.477 113.123 259.477L113.874 255.064C113.874 255.064 175.107 203.59 162.334 185.941C159.891 182.565 157.447 179.081 154.982 175.651L164.622 176.511L166.815 257.316L167.089 257.229C166.539 258.816 162.644 270.797 171.277 268.77C180.518 266.599 197.332 258.943 197.332 258.943C197.332 258.943 197.102 253.019 192.402 253.286ZM155.572 114.244L137.54 109.12V94.0219L157.139 114.384C156.175 114.29 155.572 114.244 155.572 114.244Z" fill="url(#paint1_linear)"/>
</g>
<path d="M107.337 61.4841C121.943 61.4841 133.785 49.8947 133.785 35.5985C133.785 21.3023 121.943 9.71289 107.337 9.71289C92.7302 9.71289 80.8892 21.3023 80.8892 35.5985C80.8892 49.8947 92.7302 61.4841 107.337 61.4841Z" fill="black"/>
<path d="M137.458 94.9196L157.641 115.89C158.066 116.332 158.592 116.669 159.175 116.875C159.758 117.08 160.382 117.148 160.998 117.074C161.613 116.999 162.201 116.783 162.715 116.444C163.229 116.105 163.654 115.653 163.956 115.123L186.313 75.865L180.068 73.7078L161.701 99.5934C161.701 99.5934 127.221 64.419 122.397 66.1579C117.573 67.8968 137.458 94.9196 137.458 94.9196Z" fill="#2F9EFF"/>
<path d="M98.8883 167.543L69.1346 243.043" stroke="#BDBDBD" stroke-width="5" stroke-miterlimit="10"/>
<path d="M113.581 167.543L143.335 243.043" stroke="#BDBDBD" stroke-width="5" stroke-miterlimit="10"/>
<path d="M106.235 177.25C125.305 177.25 140.764 173.146 140.764 168.082C140.764 163.019 125.305 158.915 106.235 158.915C87.1651 158.915 71.7059 163.019 71.7059 168.082C71.7059 173.146 87.1651 177.25 106.235 177.25Z" fill="#B84733"/>
<path d="M106.235 176.531C125.305 176.531 140.764 172.427 140.764 167.363C140.764 162.3 125.305 158.196 106.235 158.196C87.1651 158.196 71.7059 162.3 71.7059 167.363C71.7059 172.427 87.1651 176.531 106.235 176.531Z" fill="#F55F44"/>
<path d="M91.7056 184.131L124.284 193.956" stroke="#BDBDBD" stroke-width="5" stroke-miterlimit="10"/>
<path d="M120.764 184.131L88.1857 193.956" stroke="#BDBDBD" stroke-width="5" stroke-miterlimit="10"/>
<path d="M106.637 65.4388H116.887C122.343 65.4388 127.575 67.56 131.433 71.3357C135.291 75.1114 137.458 80.2324 137.458 85.5721V138.781H78.6852V92.7966C78.6852 85.5408 81.6301 78.5823 86.8721 73.4517C92.114 68.3212 99.2237 65.4388 106.637 65.4388Z" fill="white"/>
<path d="M78.6852 138.781H137.458V170.06H104.766C97.8486 170.06 91.215 167.37 86.3239 162.583C81.4329 157.796 78.6852 151.304 78.6852 144.534V138.781Z" fill="#39447A"/>
<path opacity="0.05" d="M79.4789 87.0243L115.418 120.446H155.09V115.412L120.928 105.705L91.7056 70.3857C91.7056 70.3857 78.4361 78.4098 79.4789 87.0243Z" fill="black"/>
<path d="M79.4789 86.3052L115.418 119.727H155.09V114.693L120.928 104.986L91.7056 69.6667C91.7056 69.6667 78.4361 77.6908 79.4789 86.3052Z" fill="white"/>
<path d="M155.09 114.693C155.09 114.693 174.191 116.131 169.048 119.727H155.09V114.693Z" fill="#FDA57D"/>
<path d="M180.068 73.7078C180.068 73.7078 184.843 59.6865 188.149 63.6412C191.455 67.596 186.313 75.865 186.313 75.865L180.068 73.7078Z" fill="#FDA57D"/>
<path opacity="0.05" d="M78.6852 138.781V140.459L137.458 140.579V138.781H78.6852Z" fill="black"/>
<path d="M124.404 172.053L163.938 175.579L166.083 254.592L180.237 250.082C180.237 250.082 201.405 160.562 181.22 153.016C161.035 145.471 139.216 135.534 126.19 143.632C113.163 151.73 124.404 172.053 124.404 172.053Z" fill="#39447A"/>
<path opacity="0.1" d="M126.805 147.769C126.805 147.769 148.478 158.555 151.416 170.779L126.805 147.769Z" fill="black"/>
<path d="M103.664 169.7L134.519 194.148L99.9902 248.436L114.316 252.39C114.316 252.39 174.191 202.057 161.701 184.8C149.212 167.543 136.723 147.41 121.295 147.05C105.867 146.691 103.664 169.7 103.664 169.7Z" fill="#39447A"/>
<path opacity="0.05" d="M152.151 90.2458L159.865 103.189L161.702 99.5934L152.151 90.2458Z" fill="black"/>
<path d="M99.9903 248.436C99.9903 248.436 88.6031 257.064 97.419 259.94C106.235 262.816 124.234 264.974 124.234 264.974C124.234 264.974 127.173 259.94 123.132 257.783C119.091 255.626 113.581 256.705 113.581 256.705L114.316 252.39L99.9903 248.436Z" fill="#333333"/>
<path d="M166.412 254.337C166.412 254.337 161.41 267.914 170.446 265.792C179.482 263.669 195.924 256.183 195.924 256.183C195.924 256.183 195.698 250.39 191.103 250.651C186.508 250.912 182.415 254.679 182.415 254.679L180.435 249.874L166.412 254.337Z" fill="#333333"/>
<path d="M108.071 52.8555H108.071C104.014 52.8555 100.725 56.0748 100.725 60.046V67.2364C100.725 71.2076 104.014 74.4269 108.071 74.4269H108.071C112.129 74.4269 115.418 71.2076 115.418 67.2364V60.046C115.418 56.0748 112.129 52.8555 108.071 52.8555Z" fill="#FDA57D"/>
<path opacity="0.05" d="M108.071 53.5746C106.123 53.5746 104.254 54.3321 102.877 55.6806C101.499 57.0291 100.725 58.858 100.725 60.765V63.208C105.497 64.7443 110.646 64.7443 115.418 63.208V60.765C115.418 58.858 114.644 57.0291 113.266 55.6806C111.888 54.3321 110.02 53.5746 108.071 53.5746Z" fill="black"/>
<path d="M108.072 63.6412C121.055 63.6412 131.581 53.3396 131.581 40.6318C131.581 27.924 121.055 17.6224 108.072 17.6224C95.0879 17.6224 84.5625 27.924 84.5625 40.6318C84.5625 53.3396 95.0879 63.6412 108.072 63.6412Z" fill="#FDA57D"/>
<path opacity="0.05" d="M84.5625 39.5877C84.5625 39.5877 90.4397 41.0701 93.7457 34.5322C97.0516 27.9944 99.6229 24.4283 113.214 28.2916C126.805 32.1548 129.539 32.6262 130.193 28.973C130.639 26.4767 125.806 20.4131 122.701 16.8232C121.186 15.0719 118.713 14.0272 116.071 14.0272H100.725L91.5417 18.1876L84.5625 24.1311L83.0931 32.1549L84.5625 39.5877Z" fill="black"/>
<path d="M84.5625 38.8686C84.5625 38.8686 90.4397 40.351 93.7457 33.8132C97.0516 27.2753 99.6229 23.7092 113.214 27.5725C126.805 31.4358 129.539 31.9071 130.193 28.2539C130.639 25.7576 125.806 19.694 122.701 16.1041C121.186 14.3528 118.713 13.3081 116.071 13.3081H100.725L91.5417 17.4686L84.5625 23.4121L83.0931 31.4358L84.5625 38.8686Z" fill="black"/>
<path d="M86.9501 43.508C88.2688 43.508 89.3378 41.4155 89.3378 38.8342C89.3378 36.2529 88.2688 34.1604 86.9501 34.1604C85.6315 34.1604 84.5625 36.2529 84.5625 38.8342C84.5625 41.4155 85.6315 43.508 86.9501 43.508Z" fill="#FDA57D"/>
<path d="M85.2436 26.8079C84.6988 23.7982 84.1636 20.6378 85.1555 17.7396C85.6413 16.3596 86.4504 15.1102 87.5179 14.0911C88.5855 13.072 89.8819 12.3117 91.3035 11.8708C93.1558 11.3135 95.1521 11.3253 96.9927 10.7321C99.5833 9.89713 101.614 7.95927 103.864 6.45086C105.853 5.11872 108.046 4.10575 110.361 3.45019C112.441 2.86183 114.89 2.63516 116.586 3.95371C118.013 5.06358 118.508 6.96604 119.687 8.3263C121.06 9.90932 123.191 10.5956 125.052 11.5917C127.372 12.8618 129.34 14.6657 130.787 16.8474C132.234 19.0291 133.116 21.523 133.358 24.1134C133.422 24.8852 133.356 25.8021 132.691 26.2212C132.277 26.427 131.812 26.5102 131.351 26.4606C121.955 26.3292 112.548 26.1972 103.191 25.353C100.282 25.0905 97.3676 24.759 94.4486 24.8672C89.9308 25.0396 85.5192 26.2579 81.5757 28.4222" fill="black"/>
<path d="M44.5575 231.988H12.0426C5.39164 231.988 0 237.265 0 243.774V243.774C0 250.284 5.39164 255.561 12.0426 255.561H44.5575C51.2084 255.561 56.6001 250.284 56.6001 243.774C56.6001 237.265 51.2084 231.988 44.5575 231.988Z" fill="white"/>
<path d="M211.536 147.829C211.679 147.825 211.814 147.766 211.913 147.665C212.013 147.564 212.068 147.43 212.068 147.29C212.068 147.15 212.013 147.016 211.913 146.915C211.814 146.815 211.679 146.756 211.536 146.751C211.393 146.756 211.258 146.815 211.158 146.915C211.059 147.016 211.004 147.15 211.004 147.29C211.004 147.43 211.059 147.564 211.158 147.665C211.258 147.766 211.393 147.825 211.536 147.829Z" fill="url(#paint2_linear)"/>
<path d="M292.383 123.681L330.586 256.738" stroke="#E0E0E0" stroke-width="8" stroke-miterlimit="10"/>
<path d="M330.741 119.785H124.446V127.653H330.741V119.785Z" fill="#E0E0E0"/>
<path d="M206.699 117.929H177.68C176.362 117.929 175.293 118.975 175.293 120.266V120.266C175.293 121.557 176.362 122.603 177.68 122.603H206.699C208.018 122.603 209.087 121.557 209.087 120.266C209.087 118.975 208.018 117.929 206.699 117.929Z" fill="#535461"/>
<g opacity="0.7">
<path opacity="0.7" d="M269.491 65.8203H206.229C200.504 65.8203 195.863 70.3626 195.863 75.9658V112.516C195.863 118.119 200.504 122.661 206.229 122.661H269.491C275.215 122.661 279.856 118.119 279.856 112.516V75.9658C279.856 70.3626 275.215 65.8203 269.491 65.8203Z" fill="url(#paint3_linear)"/>
</g>
<path d="M267.07 66.869H207.218C201.774 66.869 197.361 71.1885 197.361 76.5168V113.013C197.361 118.342 201.774 122.661 207.218 122.661H267.07C272.514 122.661 276.927 118.342 276.927 113.013V76.5168C276.927 71.1885 272.514 66.869 267.07 66.869Z" fill="#3E3F49"/>
<path d="M268.172 66.869H208.32C202.876 66.869 198.463 71.1885 198.463 76.5168V113.013C198.463 118.342 202.876 122.661 208.32 122.661H268.172C273.616 122.661 278.029 118.342 278.029 113.013V76.5168C278.029 71.1885 273.616 66.869 268.172 66.869Z" fill="#535461"/>
<path d="M241.963 96.897C243.383 96.897 244.534 95.7703 244.534 94.3804C244.534 92.9905 243.383 91.8637 241.963 91.8637C240.543 91.8637 239.392 92.9905 239.392 94.3804C239.392 95.7703 240.543 96.897 241.963 96.897Z" fill="#E0E0E0"/>
</g>
<defs>
<linearGradient id="paint0_linear" x1="298.943" y1="120.412" x2="298.943" y2="98.4766" gradientUnits="userSpaceOnUse">
<stop stop-color="#808080" stop-opacity="0.25"/>
<stop offset="0.53514" stop-color="#808080" stop-opacity="0.12"/>
<stop offset="1" stop-color="#808080" stop-opacity="0.1"/>
</linearGradient>
<linearGradient id="paint1_linear" x1="65378.4" y1="221685" x2="65378.4" y2="20415.1" gradientUnits="userSpaceOnUse">
<stop stop-color="#808080" stop-opacity="0.25"/>
<stop offset="0.53514" stop-color="#808080" stop-opacity="0.12"/>
<stop offset="1" stop-color="#808080" stop-opacity="0.1"/>
</linearGradient>
<linearGradient id="paint2_linear" x1="983.477" y1="672.079" x2="983.477" y2="668.844" gradientUnits="userSpaceOnUse">
<stop stop-color="#808080" stop-opacity="0.25"/>
<stop offset="0.53514" stop-color="#808080" stop-opacity="0.12"/>
<stop offset="1" stop-color="#808080" stop-opacity="0.1"/>
</linearGradient>
<linearGradient id="paint3_linear" x1="54584.7" y1="19458.7" x2="54584.7" y2="10472.1" gradientUnits="userSpaceOnUse">
<stop stop-color="#808080" stop-opacity="0.25"/>
<stop offset="0.53514" stop-color="#808080" stop-opacity="0.12"/>
<stop offset="1" stop-color="#808080" stop-opacity="0.1"/>
</linearGradient>
<clipPath id="clip0">
<rect width="332" height="269" fill="white"/>
</clipPath>
</defs>
</svg>
