<svg width="426" height="415" viewBox="0 0 426 415" fill="none" xmlns="http://www.w3.org/2000/svg">
<path d="M186.189 343.226H8.44055C6.20275 343.223 4.05733 342.265 2.47496 340.561C0.8926 338.857 0.00251849 336.547 0 334.137V74.3122C0.00251849 71.9026 0.892599 69.5925 2.47496 67.8887C4.05733 66.1848 6.20275 65.2264 8.44055 65.2237H186.189C188.427 65.2264 190.572 66.1848 192.154 67.8887C193.737 69.5925 194.627 71.9026 194.629 74.3122V334.137C194.627 336.547 193.737 338.857 192.154 340.561C190.572 342.265 188.427 343.223 186.189 343.226Z" fill="white"/>
<path d="M89.3018 132.844C89.3019 140.348 87.0972 147.66 83.0034 153.732C78.9096 159.805 73.1366 164.328 66.5105 166.653C66.3124 166.721 66.1144 166.789 65.9132 166.854C65.0549 167.138 64.1846 167.38 63.2992 167.587C61.6969 167.961 60.0706 168.205 58.4342 168.314C57.723 168.366 57.0077 168.392 56.2883 168.392C52.5716 168.396 48.8811 167.723 45.3728 166.401C45.2708 166.362 45.1689 166.324 45.0698 166.285C39.3857 164.074 34.3741 160.226 30.5811 155.16C26.7881 150.094 24.3592 144.004 23.5591 137.554C22.759 131.104 23.6183 124.541 26.0435 118.581C28.4687 112.62 32.3667 107.491 37.3127 103.752C42.2587 100.012 48.063 97.8065 54.0931 97.3744C60.1232 96.9424 66.1477 98.3007 71.5102 101.302C76.8727 104.302 81.3675 108.83 84.5047 114.392C87.6419 119.954 89.3012 126.337 89.3018 132.844V132.844Z" fill="white"/>
<path d="M55.4974 156.396C64.3683 156.396 71.5597 148.652 71.5597 139.1C71.5597 129.548 64.3683 121.805 55.4974 121.805C46.6264 121.805 39.4351 129.548 39.4351 139.1C39.4351 148.652 46.6264 156.396 55.4974 156.396Z" fill="#2F9EFF"/>
<path d="M56.4351 148.419L56.4518 147.773C55.3351 147.739 54.3506 147.664 53.6109 147.082C53.4011 146.908 53.2288 146.687 53.1054 146.434C52.9821 146.182 52.9107 145.903 52.8962 145.619C52.8832 145.445 52.9076 145.27 52.9676 145.107C53.0276 144.945 53.1216 144.8 53.2422 144.683C53.5216 144.501 53.8417 144.403 54.1685 144.4C54.4953 144.397 54.8169 144.488 55.0993 144.666L55.5959 144.911L54.6436 137.416L54.0489 137.504L54.859 143.879C54.5274 143.747 54.1703 143.706 53.8202 143.76C53.4701 143.814 53.1382 143.962 52.8547 144.19C52.664 144.369 52.5144 144.593 52.4175 144.845C52.3207 145.097 52.2792 145.369 52.2964 145.641C52.3139 146.024 52.409 146.398 52.5749 146.737C52.7408 147.076 52.9735 147.372 53.2568 147.604C54.2073 148.352 55.4425 148.389 56.4351 148.419Z" fill="#2F2E41"/>
<path d="M51.1079 138.054H47.8752V138.7H51.1079V138.054Z" fill="#2F2E41"/>
<path d="M61.3121 138.054H58.0793V138.7H61.3121V138.054Z" fill="#2F2E41"/>
<path d="M60.0608 163.279C60.1034 163.067 60.1256 162.85 60.1269 162.633C60.1257 161.819 59.825 161.039 59.2905 160.464C58.7561 159.888 58.0316 159.564 57.2758 159.563H53.074C52.3181 159.564 51.5933 159.887 51.0587 160.463C50.5242 161.039 50.2236 161.819 50.2229 162.633C50.2227 162.852 50.2448 163.069 50.2888 163.283C48.7027 163.821 47.2034 164.62 45.8441 165.651C45.5799 165.849 45.3189 166.062 45.0698 166.285C45.1688 166.324 45.2708 166.362 45.3728 166.401C48.881 167.723 52.5716 168.396 56.2883 168.392C57.0086 168.392 57.7239 168.366 58.4342 168.314C60.0705 168.205 61.6969 167.961 63.2991 167.587C64.1846 167.38 65.0549 167.138 65.9132 166.854C64.2151 165.236 62.2216 164.019 60.0608 163.279Z" fill="#2F2E41"/>
<path d="M59.5207 167.904C59.1312 167.935 58.7563 168.076 58.4342 168.314C60.0706 168.205 61.6969 167.961 63.2992 167.587L59.5207 167.904Z" fill="#2F2E41"/>
<path d="M70.0649 134.992L42.1613 124C41.8623 123.882 41.619 123.642 41.4849 123.331C41.3509 123.02 41.337 122.664 41.4464 122.342L41.5408 121.862C43.72 115.447 50.943 111.411 56.8999 113.757L65.4864 117.14C71.4433 119.486 74.0323 127.081 71.8531 133.495L71.6047 134.222C71.4953 134.544 71.2717 134.806 70.9829 134.95C70.6941 135.095 70.3639 135.11 70.0649 134.992Z" fill="#2F2E41"/>
<path d="M71.568 135.602C32.6759 137.147 29.2775 131.885 41.1277 123.611L43.6416 118.63L72.4534 129.941L71.568 135.602Z" fill="#2F2E41"/>
<path d="M63.942 116.351C64.1567 115.582 63.237 114.604 61.8877 114.167C60.5385 113.731 59.2706 114 59.0559 114.769C58.8412 115.538 59.7609 116.516 61.1102 116.953C62.4594 117.389 63.7273 117.12 63.942 116.351Z" fill="#2F2E41"/>
<path d="M56.2884 169.361C52.4702 169.366 48.6789 168.674 45.0752 167.316L44.7619 167.196C37.2132 164.258 30.8768 158.533 26.8794 151.039C22.8821 143.544 21.483 134.766 22.9309 126.265C24.3788 117.764 28.58 110.091 34.7872 104.612C40.9943 99.1326 48.8052 96.2013 56.8307 96.3395C64.8562 96.4777 72.576 99.6764 78.6173 105.367C84.6586 111.057 88.6297 118.87 89.8244 127.417C91.0191 135.963 89.36 144.689 85.1421 152.042C80.9242 159.395 74.421 164.899 66.7889 167.575C66.5756 167.648 66.3749 167.717 66.1709 167.782C65.3184 168.065 64.414 168.319 63.49 168.534C61.8431 168.919 60.1715 169.169 58.4895 169.282C57.7669 169.334 57.0245 169.361 56.2884 169.361ZM56.2884 98.2654C48.7316 98.2666 41.4173 101.137 35.6317 106.371C29.8462 111.606 25.96 118.869 24.6566 126.884C23.3532 134.899 24.7162 143.152 28.5058 150.192C32.2954 157.231 38.2688 162.607 45.3756 165.373L45.6729 165.487C49.0846 166.772 52.6738 167.427 56.2884 167.422C56.9842 167.422 57.6857 167.397 58.3735 167.347C59.9662 167.24 61.5492 167.003 63.1088 166.639C63.9828 166.435 64.8374 166.196 65.6485 165.927C65.8493 165.862 66.04 165.797 66.2307 165.732C73.4998 163.182 79.6859 157.925 83.6771 150.904C87.6683 143.883 89.2028 135.559 88.0047 127.429C86.8065 119.299 82.9544 111.895 77.1408 106.55C71.3272 101.204 63.9333 98.2666 56.2884 98.2654Z" fill="#CCCCCC"/>
<path d="M186.189 343.226H8.44055C6.20275 343.223 4.05733 342.265 2.47496 340.561C0.8926 338.857 0.00251849 336.547 0 334.137V74.3122C0.00251849 71.9026 0.892599 69.5925 2.47496 67.8887C4.05733 66.1848 6.20275 65.2264 8.44055 65.2237H186.189C188.427 65.2264 190.572 66.1848 192.154 67.8887C193.737 69.5925 194.627 71.9026 194.629 74.3122V334.137C194.627 336.547 193.737 338.857 192.154 340.561C190.572 342.265 188.427 343.223 186.189 343.226ZM8.44055 66.2929C6.46602 66.2953 4.57302 67.141 3.17682 68.6444C1.78062 70.1478 0.995246 72.1861 0.993007 74.3122V334.137C0.995244 336.263 1.7806 338.302 3.1768 339.805C4.57301 341.309 6.46602 342.154 8.44055 342.157H186.189C188.163 342.154 190.056 341.309 191.452 339.805C192.849 338.302 193.634 336.263 193.636 334.137V74.3122C193.634 72.1861 192.849 70.1478 191.452 68.6444C190.056 67.141 188.163 66.2953 186.189 66.2929H8.44055Z" fill="#CCCCCC"/>
<path d="M151.779 132.705H101.482C100.428 132.704 99.4169 132.252 98.6718 131.449C97.9266 130.645 97.5081 129.556 97.5081 128.421C97.5081 127.286 97.9266 126.197 98.6718 125.393C99.4169 124.59 100.428 124.138 101.482 124.136H151.779C152.302 124.136 152.82 124.246 153.303 124.461C153.786 124.676 154.226 124.992 154.596 125.389C154.966 125.787 155.259 126.26 155.459 126.78C155.66 127.3 155.763 127.858 155.763 128.421C155.763 128.984 155.66 129.542 155.459 130.062C155.259 130.582 154.966 131.055 154.596 131.452C154.226 131.85 153.786 132.166 153.303 132.381C152.82 132.596 152.302 132.706 151.779 132.705Z" fill="#2F9EFF"/>
<path d="M168.192 147.166H101.482C100.428 147.164 99.4169 146.712 98.6718 145.909C97.9266 145.106 97.5081 144.017 97.5081 142.881C97.5081 141.746 97.9266 140.657 98.6718 139.853C99.4169 139.05 100.428 138.598 101.482 138.597H168.192C169.247 138.598 170.258 139.05 171.003 139.853C171.748 140.657 172.166 141.746 172.166 142.881C172.166 144.017 171.748 145.106 171.003 145.909C170.258 146.712 169.247 147.164 168.192 147.166Z" fill="#2F9EFF"/>
<path d="M151.706 202.627H26.437C25.914 202.627 25.3961 202.517 24.9127 202.302C24.4294 202.087 23.9902 201.772 23.6202 201.374C23.2502 200.976 22.9566 200.503 22.7564 199.983C22.5561 199.463 22.453 198.905 22.453 198.342C22.453 197.779 22.5561 197.221 22.7564 196.701C22.9566 196.181 23.2502 195.709 23.6202 195.311C23.9902 194.913 24.4294 194.597 24.9127 194.382C25.3961 194.167 25.914 194.057 26.437 194.058H151.706C152.76 194.059 153.771 194.511 154.516 195.314C155.261 196.118 155.68 197.207 155.68 198.342C155.68 199.478 155.261 200.567 154.516 201.37C153.771 202.173 152.76 202.625 151.706 202.627Z" fill="#E6E6E6"/>
<path d="M168.119 217.087H26.437C25.914 217.088 25.3961 216.977 24.9127 216.762C24.4294 216.547 23.9902 216.232 23.6202 215.834C23.2502 215.436 22.9566 214.963 22.7564 214.443C22.5561 213.923 22.453 213.365 22.453 212.802C22.453 212.239 22.5561 211.682 22.7564 211.161C22.9566 210.641 23.2502 210.169 23.6202 209.771C23.9902 209.373 24.4294 209.057 24.9127 208.842C25.3961 208.627 25.914 208.517 26.437 208.518H168.119C168.642 208.517 169.16 208.627 169.643 208.842C170.127 209.057 170.566 209.373 170.936 209.771C171.306 210.169 171.599 210.641 171.8 211.161C172 211.682 172.103 212.239 172.103 212.802C172.103 213.365 172 213.923 171.8 214.443C171.599 214.963 171.306 215.436 170.936 215.834C170.566 216.232 170.127 216.547 169.643 216.762C169.16 216.977 168.642 217.088 168.119 217.087Z" fill="#E6E6E6"/>
<path d="M151.706 250.322H26.437C25.3817 250.322 24.3696 249.87 23.6234 249.067C22.8772 248.263 22.4579 247.174 22.4579 246.037C22.4579 244.901 22.8772 243.811 23.6234 243.008C24.3696 242.204 25.3817 241.753 26.437 241.753H151.706C152.761 241.753 153.773 242.204 154.519 243.008C155.265 243.811 155.685 244.901 155.685 246.037C155.685 247.174 155.265 248.263 154.519 249.067C153.773 249.87 152.761 250.322 151.706 250.322Z" fill="#E6E6E6"/>
<path d="M168.119 264.782H26.437C25.3817 264.782 24.3696 264.331 23.6234 263.527C22.8772 262.724 22.4579 261.634 22.4579 260.498C22.4579 259.361 22.8772 258.271 23.6234 257.468C24.3696 256.664 25.3817 256.213 26.437 256.213H168.119C169.174 256.213 170.187 256.664 170.933 257.468C171.679 258.271 172.098 259.361 172.098 260.498C172.098 261.634 171.679 262.724 170.933 263.527C170.187 264.331 169.174 264.782 168.119 264.782Z" fill="#E6E6E6"/>
<path d="M151.706 298.017H26.437C25.3817 298.017 24.3696 297.566 23.6234 296.762C22.8772 295.959 22.4579 294.869 22.4579 293.733C22.4579 292.596 22.8772 291.507 23.6234 290.703C24.3696 289.9 25.3817 289.448 26.437 289.448H151.706C152.761 289.448 153.773 289.9 154.519 290.703C155.265 291.507 155.685 292.596 155.685 293.733C155.685 294.869 155.265 295.959 154.519 296.762C153.773 297.566 152.761 298.017 151.706 298.017Z" fill="#E6E6E6"/>
<path d="M168.119 312.477H26.437C25.3817 312.477 24.3696 312.026 23.6234 311.222C22.8772 310.419 22.4579 309.329 22.4579 308.193C22.4579 307.056 22.8772 305.967 23.6234 305.163C24.3696 304.36 25.3817 303.908 26.437 303.908H168.119C169.174 303.908 170.187 304.36 170.933 305.163C171.679 305.967 172.098 307.056 172.098 308.193C172.098 309.329 171.679 310.419 170.933 311.222C170.187 312.026 169.174 312.477 168.119 312.477Z" fill="#E6E6E6"/>
<path d="M417.559 278.002L239.811 278.002C237.573 278 235.428 277.041 233.846 275.337C232.263 273.634 231.373 271.323 231.371 268.914L231.37 9.0887C231.373 6.6791 232.263 4.36897 233.845 2.66513C235.428 0.961282 237.573 0.002864 239.811 0.000150422L417.559 0C419.797 0.00271009 421.942 0.961114 423.525 2.66496C425.107 4.3688 425.997 6.67893 426 9.08853L426 268.914C425.997 271.323 425.107 273.633 423.525 275.337C421.943 277.041 419.797 278 417.559 278.002Z" fill="white"/>
<path d="M417.559 278.002L239.811 278.002C237.573 278 235.428 277.041 233.846 275.337C232.263 273.634 231.373 271.323 231.371 268.914L231.37 9.0887C231.373 6.6791 232.263 4.36897 233.845 2.66513C235.428 0.961282 237.573 0.002864 239.811 0.000150422L417.559 0C419.797 0.00271009 421.942 0.961114 423.525 2.66496C425.107 4.3688 425.997 6.67893 426 9.08853L426 268.914C425.997 271.323 425.107 273.633 423.525 275.337C421.943 277.041 419.797 278 417.559 278.002ZM239.811 1.06939C237.837 1.0718 235.943 1.91747 234.547 3.42086C233.151 4.92425 232.366 6.96259 232.363 9.0887L232.364 268.914C232.366 271.04 233.151 273.078 234.548 274.582C235.944 276.085 237.837 276.931 239.811 276.933L417.559 276.933C419.534 276.931 421.427 276.085 422.823 274.582C424.219 273.078 425.005 271.04 425.007 268.914L425.007 9.08854C425.005 6.96242 424.219 4.92408 422.823 3.4207C421.427 1.91731 419.534 1.07165 417.559 1.06924L239.811 1.06939Z" fill="#CCCCCC"/>
<path d="M320.756 67.2661C320.756 74.2968 318.82 81.1696 315.192 87.0154C311.564 92.8613 306.408 97.4175 300.376 100.108C294.344 102.799 287.706 103.503 281.302 102.131C274.898 100.759 269.015 97.3737 264.398 92.4023C259.781 87.4308 256.637 81.0968 255.363 74.2012C254.089 67.3056 254.743 60.1581 257.242 53.6625C259.74 47.167 263.972 41.6152 269.401 37.7091C274.83 33.8031 281.213 31.7182 287.742 31.7182C296.497 31.7212 304.893 35.4673 311.083 42.1332C317.274 48.7991 320.753 57.8391 320.756 67.2661Z" fill="white"/>
<path d="M303 73.3487C302.64 96.0834 271.233 96.0799 270.876 73.3479C271.236 50.6139 302.643 50.6174 303 73.3487Z" fill="#2F9EFF"/>
<path d="M286.301 80.4053L286.284 79.7589C290.421 80.3537 291.312 74.8329 287.14 76.8969L288.092 69.4026L288.687 69.4903L287.877 75.8652C292.27 75.1611 290.645 81.0512 286.301 80.4053Z" fill="#2F2E41"/>
<path d="M294.861 70.0401H291.628V70.6864H294.861V70.0401Z" fill="#2F2E41"/>
<path d="M284.656 70.0401H281.424V70.6864H284.656V70.0401Z" fill="#2F2E41"/>
<path d="M292.145 97.5303C292.775 92.951 287.796 93.8559 285.161 93.8107C284.736 93.8121 284.317 93.9155 283.934 94.1135C283.551 94.3114 283.214 94.5989 282.947 94.9549C282.68 95.311 282.491 95.7266 282.392 96.1716C282.293 96.6165 282.288 97.0796 282.376 97.527C280.337 98.2059 278.448 99.3277 276.827 100.823C283.658 103.388 291.082 103.477 297.965 101.075C296.287 99.4529 294.301 98.2432 292.145 97.5303Z" fill="#2F2E41"/>
<path d="M279.387 65.1685C282.363 63.316 285.973 64.7372 289.048 65.5142C294.882 67.4452 303.063 65.0271 303.772 57.5442C304.511 50.5849 295.669 46.7062 292.843 53.6327L293.666 53.5169C284.501 38.8511 268.56 39.4073 268.664 59.5702C268.63 60.1931 269.531 60.191 269.565 59.5699C269.227 47.6882 276.53 39.5662 286.853 47.2019C289.159 49.1453 291.192 51.4371 292.889 54.0062C293.964 55.3036 294.197 49.7165 299.343 51.1799C305.006 53.5422 303.158 62.2735 298.097 64.1903C291.843 67.6308 285.069 60.9602 278.932 64.3309C278.833 64.3981 278.763 64.504 278.735 64.6262C278.707 64.7484 278.725 64.8775 278.784 64.9861C278.843 65.0947 278.938 65.1744 279.051 65.2085C279.163 65.2425 279.284 65.2282 279.387 65.1685Z" fill="#2F2E41"/>
<path d="M287.742 103.783C279.217 103.776 271.007 100.308 264.751 94.0716C258.495 87.8354 254.652 79.2889 253.988 70.1369C253.325 60.9848 255.889 51.8997 261.171 44.6934C266.452 37.4872 274.063 32.6895 282.484 31.2571C290.905 29.8248 299.518 31.863 306.605 36.9654C313.692 42.0678 318.733 49.8593 320.721 58.786C322.71 67.7127 321.501 77.1185 317.334 85.1276C313.168 93.1367 306.351 99.1604 298.243 101.997C294.852 103.185 291.308 103.788 287.742 103.783ZM287.742 32.6877C281.39 32.6867 275.179 34.7143 269.897 38.514C264.614 42.3137 260.497 47.7148 258.066 54.0343C255.634 60.3538 254.998 67.3077 256.237 74.0167C257.476 80.7257 260.535 86.8883 265.027 91.7251C269.519 96.562 275.242 99.8558 281.473 101.19C287.704 102.524 294.162 101.839 300.031 99.2209C305.9 96.6027 310.916 92.1693 314.444 86.4814C317.973 80.7934 319.856 74.1064 319.855 67.2661C319.846 58.0985 316.459 49.3094 310.439 42.8269C304.419 36.3444 296.256 32.698 287.742 32.6877Z" fill="#CCCCCC"/>
<path d="M383.149 67.4818L332.853 67.4819C331.797 67.4819 330.785 67.0305 330.039 66.227C329.293 65.4235 328.874 64.3337 328.874 63.1974C328.874 62.0611 329.293 60.9713 330.039 60.1678C330.785 59.3643 331.797 58.9129 332.853 58.9129L383.149 58.9128C384.205 58.9128 385.217 59.3642 385.963 60.1677C386.709 60.9712 387.128 62.061 387.128 63.1973C387.128 64.3337 386.709 65.4234 385.963 66.2269C385.217 67.0304 384.205 67.4818 383.149 67.4818Z" fill="#2F9EFF"/>
<path d="M399.563 81.9421L332.853 81.9421C332.33 81.9428 331.812 81.8325 331.328 81.6175C330.845 81.4025 330.406 81.087 330.036 80.6891C329.666 80.2912 329.372 79.8186 329.172 79.2984C328.972 78.7783 328.869 78.2207 328.869 77.6576C328.869 77.0945 328.972 76.5369 329.172 76.0168C329.372 75.4966 329.666 75.0241 330.036 74.6261C330.406 74.2282 330.845 73.9127 331.328 73.6977C331.812 73.4827 332.33 73.3724 332.853 73.3731L399.563 73.373C400.618 73.373 401.63 73.8244 402.376 74.6279C403.123 75.4314 403.542 76.5212 403.542 77.6576C403.542 78.7939 403.123 79.8836 402.376 80.6871C401.63 81.4906 400.618 81.9421 399.563 81.9421Z" fill="#2F9EFF"/>
<path d="M383.076 137.403L257.808 137.403C256.753 137.402 255.742 136.95 254.997 136.146C254.252 135.343 253.833 134.254 253.833 133.118C253.833 131.983 254.252 130.894 254.997 130.091C255.742 129.287 256.753 128.835 257.808 128.834L383.076 128.834C384.131 128.834 385.144 129.285 385.89 130.089C386.636 130.892 387.055 131.982 387.055 133.118C387.055 134.255 386.636 135.344 385.89 136.148C385.144 136.951 384.131 137.403 383.076 137.403Z" fill="#E6E6E6"/>
<path d="M399.49 151.863L257.807 151.863C257.285 151.864 256.767 151.754 256.283 151.539C255.8 151.324 255.361 151.008 254.991 150.61C254.621 150.212 254.327 149.74 254.127 149.22C253.927 148.699 253.824 148.142 253.824 147.579C253.824 147.016 253.927 146.458 254.127 145.938C254.327 145.418 254.621 144.945 254.991 144.547C255.361 144.149 255.8 143.834 256.283 143.619C256.767 143.404 257.285 143.293 257.807 143.294L399.49 143.294C400.545 143.294 401.557 143.745 402.303 144.549C403.049 145.352 403.469 146.442 403.469 147.579C403.469 148.715 403.049 149.805 402.303 150.608C401.557 151.412 400.545 151.863 399.49 151.863Z" fill="#E6E6E6"/>
<path d="M383.076 185.098L257.808 185.098C256.753 185.097 255.742 184.645 254.997 183.842C254.252 183.038 253.833 181.949 253.833 180.814C253.833 179.678 254.252 178.589 254.997 177.786C255.742 176.983 256.753 176.531 257.808 176.529L383.076 176.529C384.131 176.529 385.144 176.981 385.89 177.784C386.636 178.588 387.055 179.677 387.055 180.814C387.055 181.95 386.636 183.04 385.89 183.843C385.144 184.647 384.131 185.098 383.076 185.098Z" fill="#E6E6E6"/>
<path d="M399.49 199.558L257.808 199.558C257.285 199.559 256.767 199.449 256.283 199.234C255.8 199.019 255.361 198.703 254.991 198.305C254.621 197.908 254.327 197.435 254.127 196.915C253.927 196.395 253.824 195.837 253.824 195.274C253.824 194.711 253.927 194.153 254.127 193.633C254.327 193.113 254.621 192.64 254.991 192.243C255.361 191.845 255.8 191.529 256.283 191.314C256.767 191.099 257.285 190.989 257.808 190.99L399.49 190.989C400.545 190.989 401.557 191.441 402.303 192.244C403.05 193.048 403.469 194.138 403.469 195.274C403.469 196.41 403.05 197.5 402.303 198.303C401.557 199.107 400.545 199.558 399.49 199.558Z" fill="#E6E6E6"/>
<path d="M383.076 232.794L257.808 232.794C256.752 232.794 255.74 232.342 254.994 231.539C254.248 230.735 253.829 229.645 253.829 228.509C253.829 227.373 254.248 226.283 254.994 225.48C255.74 224.676 256.752 224.225 257.808 224.225L383.076 224.224C384.132 224.224 385.144 224.676 385.89 225.479C386.636 226.283 387.055 227.373 387.055 228.509C387.055 229.645 386.636 230.735 385.89 231.539C385.144 232.342 384.132 232.794 383.076 232.794Z" fill="#E6E6E6"/>
<path d="M399.49 247.254L257.808 247.254C256.752 247.254 255.74 246.802 254.994 245.999C254.248 245.195 253.829 244.106 253.829 242.969C253.829 241.833 254.248 240.743 254.994 239.94C255.74 239.136 256.752 238.685 257.808 238.685L399.49 238.685C400.545 238.685 401.557 239.136 402.303 239.94C403.05 240.743 403.469 241.833 403.469 242.969C403.469 244.106 403.05 245.195 402.303 245.999C401.557 246.802 400.545 247.254 399.49 247.254Z" fill="#E6E6E6"/>
<path d="M310.315 389.738H132.566C130.329 389.735 128.183 388.777 126.601 387.073C125.018 385.369 124.128 383.059 124.126 380.649V120.824C124.128 118.415 125.018 116.104 126.601 114.401C128.183 112.697 130.329 111.738 132.566 111.736H310.315C312.552 111.738 314.698 112.697 316.28 114.401C317.863 116.104 318.753 118.415 318.755 120.824V380.649C318.753 383.059 317.863 385.369 316.28 387.073C314.698 388.777 312.552 389.735 310.315 389.738Z" fill="white"/>
<path d="M147.391 178.625C147.385 183.304 148.24 187.938 149.906 192.259C151.572 196.58 154.016 200.504 157.097 203.803C157.355 204.077 157.619 204.352 157.886 204.62C159.495 206.239 161.251 207.68 163.127 208.922C163.487 209.161 163.847 209.39 164.216 209.613C166.113 210.764 168.112 211.709 170.182 212.434C170.539 212.56 170.903 212.68 171.266 212.79C177.848 214.823 184.854 214.61 191.32 212.182C191.446 212.134 191.572 212.085 191.695 212.037C197.371 209.813 202.372 205.956 206.153 200.884C209.935 195.812 212.351 189.721 213.141 183.273C213.93 176.825 213.061 170.267 210.629 164.314C208.197 158.361 204.295 153.24 199.348 149.509C194.4 145.778 188.597 143.58 182.57 143.154C176.543 142.727 170.523 144.09 165.165 147.092C159.807 150.095 155.317 154.623 152.183 160.182C149.049 165.742 147.392 172.121 147.391 178.625Z" fill="white"/>
<path d="M173.433 196.048C173.449 198.803 172.506 201.463 170.79 203.506C169.093 205.512 166.566 206.842 164.016 206.292C161.667 205.785 159.759 203.575 159.997 200.901C160.037 200.322 160.193 199.76 160.455 199.252C160.718 198.745 161.079 198.305 161.516 197.964C161.952 197.622 162.452 197.388 162.981 197.276C163.51 197.164 164.056 197.178 164.579 197.316C166.81 197.939 167.699 201.401 165.84 203.026C165.394 203.416 164.753 202.734 165.203 202.34C165.481 202.067 165.69 201.723 165.813 201.34C165.935 200.957 165.966 200.547 165.903 200.147C165.839 199.748 165.684 199.372 165.451 199.054C165.218 198.736 164.915 198.486 164.569 198.327C164.161 198.186 163.728 198.147 163.304 198.213C162.88 198.279 162.475 198.448 162.121 198.707C161.766 198.967 161.471 199.309 161.257 199.709C161.044 200.11 160.918 200.557 160.889 201.017C160.741 203.271 162.345 204.969 164.311 205.368C166.439 205.8 168.548 204.628 169.989 203.01C171.641 201.131 172.553 198.636 172.532 196.048C172.536 195.923 172.585 195.804 172.669 195.716C172.753 195.629 172.866 195.58 172.983 195.58C173.099 195.58 173.212 195.629 173.296 195.716C173.38 195.804 173.429 195.923 173.433 196.048V196.048Z" fill="#2F2E41"/>
<path d="M182.224 202.212C191.095 202.212 198.287 194.468 198.287 184.916C198.287 175.364 191.095 167.621 182.224 167.621C173.354 167.621 166.162 175.364 166.162 184.916C166.162 194.468 173.354 202.212 182.224 202.212Z" fill="#2F9EFF"/>
<path d="M181.403 192.296L181.386 191.65C182.503 191.616 183.487 191.541 184.227 190.959C184.437 190.784 184.609 190.564 184.732 190.311C184.856 190.059 184.927 189.78 184.942 189.495C184.955 189.321 184.93 189.146 184.87 188.984C184.81 188.822 184.716 188.677 184.596 188.56C184.316 188.378 183.996 188.28 183.669 188.277C183.342 188.273 183.021 188.365 182.738 188.542L182.242 188.788L183.194 181.293L183.789 181.381L182.979 187.756C183.31 187.623 183.668 187.582 184.018 187.637C184.368 187.691 184.7 187.839 184.983 188.066C185.174 188.246 185.323 188.47 185.42 188.722C185.517 188.974 185.559 189.246 185.541 189.518C185.524 189.901 185.429 190.275 185.263 190.614C185.097 190.953 184.864 191.249 184.581 191.481C183.63 192.229 182.395 192.266 181.403 192.296Z" fill="#2F2E41"/>
<path d="M189.963 181.931H186.73V182.577H189.963V181.931Z" fill="#2F2E41"/>
<path d="M179.758 181.931H176.526V182.577H179.758V181.931Z" fill="#2F2E41"/>
<path d="M171.266 212.79C177.848 214.823 184.854 214.61 191.32 212.182C191.446 212.134 191.572 212.085 191.695 212.037C190.171 210.771 188.448 209.812 186.608 209.206C186.738 208.709 186.736 208.183 186.602 207.687C186.42 207.059 186.054 206.51 185.559 206.124C185.065 205.737 184.467 205.533 183.856 205.541H179.942C179.332 205.532 178.736 205.736 178.242 206.122C177.748 206.508 177.383 207.056 177.202 207.684C177.068 208.181 177.066 208.708 177.196 209.206C175.575 209.74 174.044 210.549 172.658 211.601C172.379 211.811 172.109 212.03 171.848 212.26C171.65 212.431 171.455 212.609 171.266 212.79Z" fill="#2F2E41"/>
<path d="M194.807 183.081C194.807 185.996 196.14 188.414 197.872 188.834C198.048 188.876 198.228 188.898 198.409 188.898C200.393 188.898 202.01 186.29 202.01 183.081C202.055 181.427 201.565 179.807 200.624 178.499C200.331 178.117 199.971 177.802 199.564 177.572C199.208 177.371 198.811 177.266 198.409 177.265C197.856 177.272 197.32 177.466 196.875 177.82C195.654 178.751 194.807 180.758 194.807 183.081Z" fill="#3F3D56"/>
<path d="M162.694 183.081C162.694 185.589 163.679 187.729 165.059 188.546C165.437 188.774 165.863 188.895 166.296 188.898C166.392 188.898 166.488 188.892 166.584 188.879C168.433 188.643 169.897 186.135 169.897 183.081C169.897 180.635 168.958 178.538 167.631 177.681C167.23 177.413 166.768 177.269 166.296 177.265C165.893 177.266 165.497 177.371 165.14 177.572C164.733 177.803 164.372 178.12 164.078 178.502C163.139 179.811 162.65 181.429 162.694 183.081Z" fill="#3F3D56"/>
<path d="M165.284 187.988C165.355 187.988 165.426 187.97 165.489 187.935C165.553 187.9 165.608 187.849 165.649 187.786C165.691 187.724 165.718 187.651 165.729 187.575C165.74 187.499 165.733 187.422 165.711 187.349C164.85 184.594 164.591 181.662 164.954 178.782C165.317 175.902 166.292 173.15 167.803 170.742C169.314 168.333 171.32 166.332 173.666 164.894C176.012 163.456 178.634 162.62 181.329 162.451C184.024 162.281 186.719 162.783 189.204 163.918C191.689 165.052 193.898 166.788 195.659 168.992C197.42 171.195 198.685 173.805 199.356 176.621C200.028 179.436 200.088 182.38 199.53 185.224C199.506 185.35 199.529 185.481 199.594 185.588C199.659 185.696 199.762 185.771 199.878 185.797C199.995 185.824 200.117 185.799 200.217 185.729C200.317 185.659 200.387 185.55 200.412 185.424C200.998 182.434 200.935 179.338 200.229 176.378C199.524 173.418 198.194 170.673 196.342 168.357C194.491 166.04 192.169 164.215 189.556 163.022C186.943 161.829 184.109 161.301 181.276 161.479C178.443 161.657 175.686 162.537 173.219 164.049C170.753 165.561 168.643 167.665 167.055 170.198C165.467 172.73 164.442 175.623 164.061 178.651C163.68 181.68 163.952 184.762 164.857 187.659C164.887 187.755 164.945 187.838 165.021 187.897C165.098 187.957 165.19 187.988 165.284 187.988Z" fill="#3F3D56"/>
<path d="M190.293 173.71C190.56 174.179 190.671 174.731 190.607 175.276C190.544 175.821 190.311 176.327 189.946 176.711C189.074 177.76 187.683 177.826 186.476 177.631C185.121 177.413 183.684 176.729 182.312 177.19C181.143 177.583 180.309 178.724 179.095 179.011C178.017 179.265 176.729 178.929 176.352 177.693C176.17 177.099 177.039 176.844 177.22 177.435C177.464 178.235 178.519 178.219 179.123 177.997C180.092 177.642 180.838 176.779 181.79 176.366C182.925 175.988 184.139 175.991 185.272 176.376C186.349 176.637 187.589 177.025 188.661 176.537C189.455 176.176 190.087 175.039 189.516 174.2C189.173 173.696 189.954 173.212 190.293 173.71V173.71Z" fill="#2F2E41"/>
<path d="M180.404 215.142C177.229 215.145 174.068 214.667 171.016 213.721C170.658 213.613 170.281 213.489 169.902 213.356C167.776 212.61 165.723 211.64 163.774 210.458C163.409 210.237 163.042 210.004 162.654 209.747C160.728 208.471 158.924 206.991 157.271 205.329C156.999 205.055 156.729 204.773 156.464 204.493C151.266 198.912 147.89 191.665 146.843 183.842C145.796 176.019 147.135 168.041 150.659 161.107C154.183 154.173 159.701 148.657 166.384 145.389C173.068 142.12 180.556 141.275 187.724 142.98C194.892 144.686 201.352 148.849 206.134 154.846C210.917 160.843 213.763 168.348 214.245 176.235C214.727 184.122 212.82 191.965 208.809 198.585C204.798 205.205 198.901 210.245 192.003 212.948C191.879 212.997 191.751 213.046 191.623 213.095C188.017 214.455 184.224 215.147 180.404 215.142ZM180.404 144.047C174.049 144.047 167.836 146.078 162.553 149.882C157.27 153.687 153.154 159.094 150.726 165.419C148.299 171.744 147.669 178.702 148.916 185.413C150.163 192.123 153.232 198.284 157.733 203.116C157.982 203.381 158.24 203.649 158.5 203.911C160.066 205.486 161.774 206.887 163.598 208.096C163.966 208.34 164.312 208.559 164.656 208.768C166.502 209.887 168.446 210.806 170.46 211.512C170.817 211.638 171.169 211.753 171.509 211.856C177.914 213.835 184.731 213.63 191.022 211.267L191.386 211.126C198.481 208.345 204.439 202.962 208.215 195.921C211.99 188.88 213.341 180.632 212.03 172.626C210.719 164.619 206.831 157.366 201.047 152.139C195.264 146.913 187.955 144.048 180.405 144.047L180.404 144.047Z" fill="#CCCCCC"/>
<path d="M310.315 389.738H132.566C130.329 389.735 128.183 388.777 126.601 387.073C125.018 385.369 124.128 383.059 124.126 380.649V120.824C124.128 118.415 125.018 116.104 126.601 114.401C128.183 112.697 130.329 111.738 132.566 111.736H310.315C312.552 111.738 314.698 112.697 316.28 114.401C317.863 116.104 318.753 118.415 318.755 120.824V380.649C318.753 383.059 317.863 385.369 316.28 387.073C314.698 388.777 312.552 389.735 310.315 389.738ZM132.566 112.805C130.592 112.807 128.699 113.653 127.303 115.156C125.906 116.66 125.121 118.698 125.119 120.824V380.649C125.121 382.775 125.906 384.814 127.303 386.317C128.699 387.82 130.592 388.666 132.566 388.669H310.315C312.289 388.666 314.182 387.82 315.578 386.317C316.975 384.814 317.76 382.775 317.762 380.649V120.824C317.76 118.698 316.975 116.66 315.578 115.156C314.182 113.653 312.289 112.807 310.315 112.805H132.566Z" fill="#3F3D56"/>
<path d="M275.905 179.217H225.608C224.553 179.217 223.541 178.766 222.794 177.963C222.048 177.159 221.629 176.069 221.629 174.933C221.629 173.797 222.048 172.707 222.794 171.903C223.541 171.1 224.553 170.648 225.608 170.648H275.905C276.96 170.648 277.972 171.1 278.718 171.903C279.464 172.707 279.884 173.797 279.884 174.933C279.884 176.069 279.464 177.159 278.718 177.963C277.972 178.766 276.96 179.217 275.905 179.217Z" fill="#2F9EFF"/>
<path d="M292.318 193.678H225.608C224.553 193.678 223.541 193.226 222.794 192.423C222.048 191.619 221.629 190.529 221.629 189.393C221.629 188.257 222.048 187.167 222.794 186.364C223.541 185.56 224.553 185.109 225.608 185.109H292.318C293.373 185.109 294.386 185.56 295.132 186.364C295.878 187.167 296.297 188.257 296.297 189.393C296.297 190.529 295.878 191.619 295.132 192.423C294.386 193.226 293.373 193.678 292.318 193.678Z" fill="#2F9EFF"/>
<path d="M275.831 249.138H150.563C149.507 249.138 148.495 248.687 147.749 247.884C147.003 247.08 146.584 245.99 146.584 244.854C146.584 243.718 147.003 242.628 147.749 241.824C148.495 241.021 149.507 240.569 150.563 240.569H275.831C276.887 240.569 277.899 241.021 278.645 241.824C279.391 242.628 279.81 243.718 279.81 244.854C279.81 245.99 279.391 247.08 278.645 247.884C277.899 248.687 276.887 249.138 275.831 249.138Z" fill="#CCCCCC"/>
<path d="M292.245 263.599H150.563C149.507 263.599 148.495 263.147 147.749 262.344C147.003 261.54 146.584 260.45 146.584 259.314C146.584 258.178 147.003 257.088 147.749 256.285C148.495 255.481 149.507 255.03 150.563 255.03H292.245C293.3 255.03 294.312 255.481 295.059 256.285C295.805 257.088 296.224 258.178 296.224 259.314C296.224 260.45 295.805 261.54 295.059 262.344C294.312 263.147 293.3 263.599 292.245 263.599Z" fill="#CCCCCC"/>
<path d="M275.831 296.834H150.563C149.508 296.832 148.498 296.38 147.752 295.577C147.007 294.774 146.589 293.685 146.589 292.549C146.589 291.414 147.007 290.325 147.752 289.522C148.498 288.718 149.508 288.266 150.563 288.265H275.831C276.887 288.265 277.899 288.716 278.645 289.52C279.391 290.323 279.81 291.413 279.81 292.549C279.81 293.686 279.391 294.775 278.645 295.579C277.899 296.382 276.887 296.834 275.831 296.834Z" fill="#CCCCCC"/>
<path d="M292.245 311.294H150.563C149.508 311.293 148.498 310.841 147.752 310.037C147.007 309.234 146.589 308.145 146.589 307.009C146.589 305.874 147.007 304.785 147.752 303.982C148.498 303.178 149.508 302.726 150.563 302.725H292.245C293.3 302.725 294.312 303.176 295.059 303.98C295.805 304.783 296.224 305.873 296.224 307.009C296.224 308.146 295.805 309.236 295.059 310.039C294.312 310.843 293.3 311.294 292.245 311.294Z" fill="#CCCCCC"/>
<path d="M275.831 344.529H150.563C149.507 344.529 148.495 344.078 147.749 343.274C147.003 342.471 146.584 341.381 146.584 340.244C146.584 339.108 147.003 338.018 147.749 337.215C148.495 336.411 149.507 335.96 150.563 335.96H275.831C276.887 335.96 277.899 336.411 278.645 337.215C279.391 338.018 279.81 339.108 279.81 340.244C279.81 341.381 279.391 342.471 278.645 343.274C277.899 344.078 276.887 344.529 275.831 344.529Z" fill="#CCCCCC"/>
<path d="M292.245 358.989H150.563C149.507 358.989 148.495 358.538 147.749 357.734C147.003 356.931 146.584 355.841 146.584 354.705C146.584 353.568 147.003 352.479 147.749 351.675C148.495 350.872 149.507 350.42 150.563 350.42H292.245C293.3 350.42 294.312 350.872 295.059 351.675C295.805 352.479 296.224 353.568 296.224 354.705C296.224 355.841 295.805 356.931 295.059 357.734C294.312 358.538 293.3 358.989 292.245 358.989Z" fill="#CCCCCC"/>
<path d="M308.252 330.574C303.1 330.567 297.998 331.655 293.236 333.773C288.475 335.892 284.148 339 280.503 342.921C276.858 346.841 273.966 351.497 271.993 356.621C270.02 361.746 269.005 367.239 269.005 372.787C269.005 378.334 270.02 383.827 271.993 388.952C273.966 394.076 276.858 398.732 280.503 402.653C284.148 406.573 288.474 409.682 293.236 411.8C297.997 413.919 303.1 415.006 308.252 415H308.252C318.638 414.98 328.591 410.524 335.929 402.61C343.266 394.695 347.387 383.97 347.387 372.787C347.387 361.604 343.266 350.878 335.929 342.964C328.591 335.049 318.638 330.593 308.252 330.574Z" fill="#2F2E41"/>
<path d="M304.532 390.318C303.5 390.32 302.496 389.96 301.67 389.294L301.619 389.252L290.838 380.372C289.831 379.539 289.172 378.31 289.006 376.954C288.84 375.598 289.181 374.227 289.954 373.142C290.726 372.057 291.868 371.346 293.126 371.167C294.385 370.987 295.659 371.353 296.668 372.184L303.651 377.95L320.152 354.769C320.535 354.232 321.012 353.781 321.556 353.442C322.101 353.103 322.702 352.883 323.326 352.795C323.949 352.706 324.583 352.75 325.19 352.925C325.798 353.1 326.367 353.402 326.866 353.814L326.868 353.816L326.765 353.969L326.871 353.816C327.877 354.649 328.536 355.878 328.702 357.234C328.868 358.59 328.528 359.961 327.756 361.047L308.347 388.3C307.898 388.928 307.321 389.436 306.66 389.785C305.999 390.134 305.273 390.314 304.537 390.312L304.532 390.318Z" fill="white"/>
</svg>
