<svg width="24" height="22" viewBox="0 0 24 22" fill="none" xmlns="http://www.w3.org/2000/svg">
<path d="M12 2C11.4479 2 10.9766 2.19531 10.5859 2.58594C10.1953 2.97656 10 3.44792 10 4V6H9.5V4.54688C9.5 4.04688 9.33333 3.6224 9 3.27344C8.66667 2.92448 8.25 2.75 7.75 2.75C7.27083 2.75 6.85938 2.92188 6.51562 3.26562C6.17188 3.60938 6 4.02083 6 4.5V11.2031L5.5 10.7344V8.04688C5.5 7.54688 5.33333 7.1224 5 6.77344C4.66667 6.42448 4.25 6.25 3.75 6.25C3.27083 6.25 2.85938 6.42188 2.51562 6.76562C2.17188 7.10938 2 7.52083 2 8V11.5C2 11.9896 2.18229 12.4167 2.54688 12.7812L7.39062 17.4062C7.79688 17.8125 8 18.3438 8 19C8 19.2708 8.09896 19.5052 8.29688 19.7031C8.49479 19.901 8.72917 20 9 20H19C19.2708 20 19.5052 19.901 19.7031 19.7031C19.901 19.5052 20 19.2708 20 19V18.6094C20 18.1823 20.0521 17.7812 20.1562 17.4062L21.8438 10.5938C21.9479 10.2188 22 9.81771 22 9.39062V5.54688C22 5.04688 21.8333 4.6224 21.5 4.27344C21.1667 3.92448 20.75 3.75 20.25 3.75C19.7708 3.75 19.3594 3.92188 19.0156 4.26562C18.6719 4.60938 18.5 5.02083 18.5 5.5V6H18V4.04688C18 3.63021 17.8698 3.2526 17.6094 2.91406C17.349 2.57552 17.0156 2.36458 16.6094 2.28125C16.4635 2.26042 16.3438 2.25 16.25 2.25C15.7708 2.25 15.3594 2.42188 15.0156 2.76562C14.6719 3.10938 14.5 3.52083 14.5 4V6H14V4.09375C14 3.5625 13.8307 3.09635 13.4922 2.69531C13.1536 2.29427 12.724 2.06771 12.2031 2.01562C12.151 2.00521 12.0833 2 12 2ZM12 0C12.875 0 13.651 0.260417 14.3281 0.78125C14.9219 0.427083 15.5625 0.25 16.25 0.25C16.8646 0.25 17.4427 0.390625 17.9844 0.671875C18.526 0.953125 18.974 1.34896 19.3281 1.85938C19.6094 1.78646 19.9167 1.75 20.25 1.75C21.2917 1.75 22.1771 2.1224 22.9062 2.86719C23.6354 3.61198 24 4.50521 24 5.54688V9.39062C24 9.92188 23.9323 10.4844 23.7969 11.0781L22.0938 17.8906C22.0312 18.1406 22 18.5104 22 19C22 19.8333 21.7083 20.5417 21.125 21.125C20.5417 21.7083 19.8333 22 19 22H9C8.125 22 7.40625 21.6953 6.84375 21.0859C6.28125 20.4766 6 19.7344 6 18.8594L1.1875 14.2344C0.395833 13.474 0 12.5625 0 11.5V8C0 6.96875 0.367188 6.08594 1.10156 5.35156C1.83594 4.61719 2.71875 4.25 3.75 4.25C3.86458 4.25 3.94792 4.25521 4 4.26562C4.0625 3.27604 4.45573 2.44271 5.17969 1.76562C5.90365 1.08854 6.76042 0.75 7.75 0.75C8.29167 0.75 8.80208 0.859375 9.28125 1.07812C10.0312 0.359375 10.9375 0 12 0Z" fill="#2F9EFF"/>
</svg>
