<svg width="20" height="20" viewBox="0 0 20 20" fill="none" xmlns="http://www.w3.org/2000/svg">
<path d="M10 3.50832C11.0334 3.93332 12.2084 4.16666 13.3334 4.16666C14.2084 4.16666 15.0834 4.03332 15.9 3.78332C15.4167 4.58332 15 5.59166 15 6.66666C15 7.76666 15.45 9.10832 15.9167 10.525C16.25 11.525 16.6667 12.775 16.6667 13.3333C16.6667 14.1917 13.725 15.8333 10 16.6333C6.28335 15.8333 3.33335 14.1917 3.33335 13.3333C3.33335 12.775 3.75002 11.525 4.08335 10.525C4.55002 9.10832 5.00002 7.76666 5.00002 6.66666C5.00002 5.59166 4.58335 4.58332 4.10002 3.78332C4.91669 4.03332 5.80002 4.16666 6.66669 4.16666C7.79169 4.16666 8.96669 3.93332 10 3.50832ZM16.6667 1.66666C15.7084 2.19999 14.5 2.49999 13.3334 2.49999C12.1667 2.49999 10.95 2.19166 10 1.66666C9.05002 2.19166 7.83335 2.49999 6.66669 2.49999C5.50002 2.49999 4.29169 2.19999 3.33335 1.66666L1.66669 3.33332C1.66669 3.33332 3.33335 4.99999 3.33335 6.66666C3.33335 8.33332 1.66669 11.6667 1.66669 13.3333C1.66669 16.6667 10 18.3333 10 18.3333C10 18.3333 18.3334 16.6667 18.3334 13.3333C18.3334 11.6667 16.6667 8.33332 16.6667 6.66666C16.6667 4.99999 18.3334 3.33332 18.3334 3.33332L16.6667 1.66666ZM12.5417 13.7083L9.97502 12.1583L7.41669 13.7083L8.10002 10.7917L5.83335 8.84166L8.81669 8.58332L9.97502 5.83332L11.1417 8.57499L14.125 8.83332L11.8584 10.7833L12.5417 13.7083Z" fill="#5597E4"/>
</svg>
