<svg width="20" height="20" viewBox="0 0 20 20" fill="none" xmlns="http://www.w3.org/2000/svg">
<path d="M17.7778 8.33334H17.2222V5.00001C17.2222 4.85266 17.1637 4.71136 17.0595 4.60717C16.9553 4.50298 16.814 4.44445 16.6667 4.44445H3.33335C3.2018 4.4466 3.07376 4.40199 2.97202 4.31856C2.87029 4.23514 2.80146 4.11832 2.77779 3.9889V3.7889C2.80146 3.65947 2.87029 3.54265 2.97202 3.45923C3.07376 3.3758 3.2018 3.33119 3.33335 3.33334H16.4333C16.5807 3.33334 16.722 3.27481 16.8262 3.17062C16.9304 3.06643 16.9889 2.92513 16.9889 2.77778C16.9889 2.63044 16.9304 2.48913 16.8262 2.38495C16.722 2.28076 16.5807 2.22223 16.4333 2.22223H3.33335C2.89132 2.22223 2.4674 2.39782 2.15484 2.71038C1.84228 3.02295 1.66668 3.44687 1.66668 3.8889C1.66278 3.95551 1.66278 4.02229 1.66668 4.0889V15.5167C1.66886 15.8158 1.72994 16.1116 1.84643 16.3871C1.96292 16.6626 2.13253 16.9125 2.3456 17.1224C2.55866 17.3324 2.81099 17.4983 3.08818 17.6108C3.36537 17.7232 3.662 17.78 3.96113 17.7778H16.6667C16.814 17.7778 16.9553 17.7193 17.0595 17.6151C17.1637 17.5109 17.2222 17.3696 17.2222 17.2222V13.8889H17.7778C17.9251 13.8889 18.0664 13.8304 18.1706 13.7262C18.2748 13.622 18.3333 13.4807 18.3333 13.3333V8.8889C18.3333 8.74155 18.2748 8.60025 18.1706 8.49606C18.0664 8.39187 17.9251 8.33334 17.7778 8.33334ZM16.1111 16.6667H3.96113C3.65213 16.6697 3.35445 16.5505 3.13284 16.3351C2.91124 16.1198 2.78364 15.8256 2.77779 15.5167V5.4889C2.95813 5.54116 3.14577 5.56367 3.33335 5.55556H16.1111V8.33334H12.2222C11.4855 8.33334 10.779 8.626 10.2581 9.14693C9.73712 9.66787 9.44446 10.3744 9.44446 11.1111C9.44446 11.8478 9.73712 12.5544 10.2581 13.0753C10.779 13.5962 11.4855 13.8889 12.2222 13.8889H16.1111V16.6667ZM17.2222 12.7778H12.2222C11.7802 12.7778 11.3563 12.6022 11.0437 12.2896C10.7312 11.9771 10.5556 11.5531 10.5556 11.1111C10.5556 10.6691 10.7312 10.2452 11.0437 9.93261C11.3563 9.62005 11.7802 9.44445 12.2222 9.44445H17.2222V12.7778Z" fill="#5597E4"/>
<path d="M12.7833 11.9444C13.2436 11.9444 13.6167 11.5713 13.6167 11.1111C13.6167 10.6509 13.2436 10.2778 12.7833 10.2778C12.3231 10.2778 11.95 10.6509 11.95 11.1111C11.95 11.5713 12.3231 11.9444 12.7833 11.9444Z" fill="#5597E4"/>
</svg>
