<svg width="20" height="20" viewBox="0 0 20 20" fill="none" xmlns="http://www.w3.org/2000/svg">
<g clip-path="url(#clip0)">
<path d="M19.6667 8.60494L16.8892 11.9383M12.1667 8.60494H19.6667H12.1667ZM19.6667 8.60494L16.8892 5.27161L19.6667 8.60494Z" stroke="white" stroke-width="2" stroke-linecap="round" stroke-linejoin="round"/>
<path d="M13 4.43825V2.91658C13 2.68606 12.9522 2.45805 12.8595 2.24696C12.7669 2.03586 12.6315 1.84628 12.4618 1.69019C12.2922 1.53411 12.092 1.41491 11.874 1.34013C11.6559 1.26535 11.4247 1.23662 11.195 1.25575L4.52833 1.81075C4.11171 1.84545 3.72334 2.03546 3.44025 2.34309C3.15716 2.65073 3.00002 3.05352 3 3.47158V13.7383C3.00002 14.1563 3.15716 14.5591 3.44025 14.8667C3.72334 15.1744 4.11171 15.3644 4.52833 15.3991L11.195 15.9549C11.4248 15.9741 11.6561 15.9453 11.8742 15.8705C12.0923 15.7956 12.2925 15.6764 12.4622 15.5202C12.6318 15.364 12.7672 15.1743 12.8598 14.9631C12.9524 14.7519 13.0001 14.5238 13 14.2933V12.7716" stroke="white" stroke-width="2" stroke-linecap="round" stroke-linejoin="round"/>
</g>
<defs>
<clipPath id="clip0">
<rect width="20" height="20" fill="white"/>
</clipPath>
</defs>
</svg>
