<svg width="23" height="20" viewBox="0 0 23 20" fill="none" xmlns="http://www.w3.org/2000/svg">
<g clip-path="url(#clip0)">
<path d="M21.9762 5.48722H21.4524V2.80774C21.4524 2.68929 21.3972 2.5757 21.299 2.49195C21.2007 2.4082 21.0675 2.36115 20.9286 2.36115H8.35714C8.23311 2.36288 8.11239 2.32702 8.01647 2.25996C7.92054 2.1929 7.85565 2.09899 7.83334 1.99496V1.83419C7.85565 1.73015 7.92054 1.63625 8.01647 1.56919C8.11239 1.50213 8.23311 1.46627 8.35714 1.46799H20.7086C20.8475 1.46799 20.9807 1.42094 21.079 1.33719C21.1772 1.25344 21.2324 1.13985 21.2324 1.02141C21.2324 0.90297 21.1772 0.78938 21.079 0.70563C20.9807 0.62188 20.8475 0.574829 20.7086 0.574829H8.35714C7.94038 0.574829 7.54068 0.71598 7.24598 0.967231C6.95128 1.21848 6.78572 1.55925 6.78572 1.91457C6.78204 1.96812 6.78204 2.0218 6.78572 2.07534V11.2615C6.78777 11.502 6.84536 11.7397 6.95519 11.9612C7.06502 12.1827 7.22495 12.3835 7.42583 12.5523C7.62672 12.7211 7.86463 12.8545 8.12599 12.9449C8.38734 13.0353 8.66702 13.0809 8.94905 13.0791H20.9286C21.0675 13.0791 21.2007 13.0321 21.299 12.9483C21.3972 12.8646 21.4524 12.751 21.4524 12.6325V9.95303H21.9762C22.1151 9.95303 22.2483 9.90598 22.3466 9.82223C22.4448 9.73848 22.5 9.62489 22.5 9.50645V5.9338C22.5 5.81536 22.4448 5.70177 22.3466 5.61802C22.2483 5.53427 22.1151 5.48722 21.9762 5.48722ZM20.4048 12.1859H8.94905C8.65771 12.1883 8.37704 12.0926 8.1681 11.9194C7.95916 11.7463 7.83885 11.5099 7.83334 11.2615V3.20073C8.00336 3.24274 8.18029 3.26084 8.35714 3.25432H20.4048V5.48722H16.7381C16.0435 5.48722 15.3773 5.72247 14.8862 6.14123C14.395 6.55998 14.119 7.12792 14.119 7.72013C14.119 8.31233 14.395 8.88028 14.8862 9.29903C15.3773 9.71778 16.0435 9.95303 16.7381 9.95303H20.4048V12.1859ZM21.4524 9.05987H16.7381C16.3213 9.05987 15.9216 8.91872 15.6269 8.66747C15.3322 8.41622 15.1667 8.07545 15.1667 7.72013C15.1667 7.36481 15.3322 7.02404 15.6269 6.77279C15.9216 6.52154 16.3213 6.38038 16.7381 6.38038H21.4524V9.05987Z" fill="#2F9EFF"/>
<path d="M17.2672 8.38991C17.7011 8.38991 18.0529 8.09 18.0529 7.72004C18.0529 7.35008 17.7011 7.05017 17.2672 7.05017C16.8332 7.05017 16.4814 7.35008 16.4814 7.72004C16.4814 8.09 16.8332 8.38991 17.2672 8.38991Z" fill="#2F9EFF"/>
<path d="M5.96001 9.22503L1.83721 16.1966C1.75824 16.3301 1.71804 16.4804 1.72057 16.6328C1.7231 16.7852 1.76828 16.9343 1.85165 17.0655C1.93502 17.1966 2.05371 17.3054 2.19601 17.3809C2.33831 17.4564 2.49931 17.4961 2.66315 17.4962H10.9094C11.0732 17.4961 11.2342 17.4564 11.3765 17.3809C11.5188 17.3054 11.6375 17.1966 11.7209 17.0655C11.8043 16.9343 11.8494 16.7852 11.852 16.6328C11.8545 16.4804 11.8143 16.3301 11.7353 16.1966L7.6119 9.22503C7.53051 9.08754 7.41093 8.97289 7.26565 8.89303C7.12037 8.81318 6.95471 8.77106 6.78595 8.77106C6.6172 8.77106 6.45154 8.81318 6.30626 8.89303C6.16098 8.97289 6.0414 9.08754 5.96001 9.22503V9.22503ZM6.78595 11.5039C6.91098 11.5039 7.03089 11.5501 7.1193 11.6323C7.20771 11.7145 7.25738 11.826 7.25738 11.9423V14.2808C7.25738 14.3971 7.20771 14.5086 7.1193 14.5908C7.03089 14.673 6.91098 14.7192 6.78595 14.7192C6.66092 14.7192 6.54101 14.673 6.4526 14.5908C6.36419 14.5086 6.31453 14.3971 6.31453 14.2808V11.9423C6.31453 11.826 6.36419 11.7145 6.4526 11.6323C6.54101 11.5501 6.66092 11.5039 6.78595 11.5039ZM7.25738 15.5962C7.25738 15.7125 7.20771 15.824 7.1193 15.9062C7.03089 15.9884 6.91098 16.0346 6.78595 16.0346C6.66092 16.0346 6.54101 15.9884 6.4526 15.9062C6.36419 15.824 6.31453 15.7125 6.31453 15.5962C6.31453 15.4799 6.36419 15.3684 6.4526 15.2861C6.54101 15.2039 6.66092 15.1577 6.78595 15.1577C6.91098 15.1577 7.03089 15.2039 7.1193 15.2861C7.20771 15.3684 7.25738 15.4799 7.25738 15.5962Z" fill="#2F9EFF"/>
</g>
<defs>
<clipPath id="clip0">
<rect width="22" height="19" fill="white" transform="translate(0.5 0.25)"/>
</clipPath>
</defs>
</svg>
