<svg width="20" height="20" viewBox="0 0 20 20" fill="none" xmlns="http://www.w3.org/2000/svg">
<path d="M1.875 1.25C1.70924 1.25 1.55027 1.31585 1.43306 1.43306C1.31585 1.55027 1.25 1.70924 1.25 1.875V5.625C1.25 5.79076 1.18415 5.94973 1.06694 6.06694C0.949732 6.18415 0.79076 6.25 0.625 6.25C0.45924 6.25 0.300269 6.18415 0.183058 6.06694C0.065848 5.94973 0 5.79076 0 5.625V1.875C0 1.37772 0.197544 0.900805 0.549175 0.549175C0.900805 0.197544 1.37772 0 1.875 0L5.625 0C5.79076 0 5.94973 0.065848 6.06694 0.183058C6.18415 0.300269 6.25 0.45924 6.25 0.625C6.25 0.79076 6.18415 0.949732 6.06694 1.06694C5.94973 1.18415 5.79076 1.25 5.625 1.25H1.875ZM13.75 0.625C13.75 0.45924 13.8158 0.300269 13.9331 0.183058C14.0503 0.065848 14.2092 0 14.375 0L18.125 0C18.6223 0 19.0992 0.197544 19.4508 0.549175C19.8025 0.900805 20 1.37772 20 1.875V5.625C20 5.79076 19.9342 5.94973 19.8169 6.06694C19.6997 6.18415 19.5408 6.25 19.375 6.25C19.2092 6.25 19.0503 6.18415 18.9331 6.06694C18.8158 5.94973 18.75 5.79076 18.75 5.625V1.875C18.75 1.70924 18.6842 1.55027 18.5669 1.43306C18.4497 1.31585 18.2908 1.25 18.125 1.25H14.375C14.2092 1.25 14.0503 1.18415 13.9331 1.06694C13.8158 0.949732 13.75 0.79076 13.75 0.625ZM0.625 13.75C0.79076 13.75 0.949732 13.8158 1.06694 13.9331C1.18415 14.0503 1.25 14.2092 1.25 14.375V18.125C1.25 18.2908 1.31585 18.4497 1.43306 18.5669C1.55027 18.6842 1.70924 18.75 1.875 18.75H5.625C5.79076 18.75 5.94973 18.8158 6.06694 18.9331C6.18415 19.0503 6.25 19.2092 6.25 19.375C6.25 19.5408 6.18415 19.6997 6.06694 19.8169C5.94973 19.9342 5.79076 20 5.625 20H1.875C1.37772 20 0.900805 19.8025 0.549175 19.4508C0.197544 19.0992 0 18.6223 0 18.125L0 14.375C0 14.2092 0.065848 14.0503 0.183058 13.9331C0.300269 13.8158 0.45924 13.75 0.625 13.75ZM19.375 13.75C19.5408 13.75 19.6997 13.8158 19.8169 13.9331C19.9342 14.0503 20 14.2092 20 14.375V18.125C20 18.6223 19.8025 19.0992 19.4508 19.4508C19.0992 19.8025 18.6223 20 18.125 20H14.375C14.2092 20 14.0503 19.9342 13.9331 19.8169C13.8158 19.6997 13.75 19.5408 13.75 19.375C13.75 19.2092 13.8158 19.0503 13.9331 18.9331C14.0503 18.8158 14.2092 18.75 14.375 18.75H18.125C18.2908 18.75 18.4497 18.6842 18.5669 18.5669C18.6842 18.4497 18.75 18.2908 18.75 18.125V14.375C18.75 14.2092 18.8158 14.0503 18.9331 13.9331C19.0503 13.8158 19.2092 13.75 19.375 13.75Z" fill="#5597E4"/>
<path d="M3.75 17.5C3.75 17.5 2.5 17.5 2.5 16.25C2.5 15 3.75 11.25 10 11.25C16.25 11.25 17.5 15 17.5 16.25C17.5 17.5 16.25 17.5 16.25 17.5H3.75ZM13.75 6.25C13.75 7.24456 13.3549 8.19839 12.6517 8.90165C11.9484 9.60491 10.9946 10 10 10C9.00544 10 8.05161 9.60491 7.34835 8.90165C6.64509 8.19839 6.25 7.24456 6.25 6.25C6.25 5.25544 6.64509 4.30161 7.34835 3.59835C8.05161 2.89509 9.00544 2.5 10 2.5C10.9946 2.5 11.9484 2.89509 12.6517 3.59835C13.3549 4.30161 13.75 5.25544 13.75 6.25Z" fill="#5597E4"/>
</svg>
