<svg width="20" height="20" viewBox="0 0 20 20" fill="none" xmlns="http://www.w3.org/2000/svg">
<path d="M11.6667 2.72416C11.6667 2.14 11.1934 1.66666 10.6092 1.66666H9.39169C8.80669 1.66666 8.33335 2.14 8.33335 2.72416C8.33335 3.20583 8.00335 3.61916 7.55419 3.79583C7.48335 3.82416 7.41252 3.85416 7.34335 3.88416C6.90085 4.07583 6.37502 4.0175 6.03335 3.67666C5.83506 3.47851 5.56619 3.3672 5.28585 3.3672C5.00552 3.3672 4.73665 3.47851 4.53835 3.67666L3.67669 4.53833C3.47853 4.73663 3.36722 5.00549 3.36722 5.28583C3.36722 5.56617 3.47853 5.83503 3.67669 6.03333V6.03333C4.01835 6.375 4.07669 6.9 3.88335 7.34333C3.85298 7.4131 3.82381 7.48339 3.79585 7.55416C3.61919 8.00333 3.20585 8.33333 2.72419 8.33333C2.14002 8.33333 1.66669 8.80666 1.66669 9.39083V10.6092C1.66669 11.1933 2.14002 11.6667 2.72419 11.6667C3.20585 11.6667 3.61919 11.9967 3.79585 12.4458C3.82419 12.5167 3.85419 12.5875 3.88335 12.6567C4.07585 13.0992 4.01752 13.625 3.67669 13.9667C3.47853 14.165 3.36722 14.4338 3.36722 14.7142C3.36722 14.9945 3.47853 15.2634 3.67669 15.4617L4.53835 16.3233C4.73665 16.5215 5.00552 16.6328 5.28585 16.6328C5.56619 16.6328 5.83506 16.5215 6.03335 16.3233C6.37502 15.9817 6.90002 15.9233 7.34335 16.1158C7.41252 16.1467 7.48335 16.1758 7.55419 16.2042C8.00335 16.3808 8.33335 16.7942 8.33335 17.2758C8.33335 17.86 8.80669 18.3333 9.39085 18.3333H10.6092C11.1934 18.3333 11.6667 17.86 11.6667 17.2758C11.6667 16.7942 11.9967 16.3808 12.4459 16.2033C12.5167 16.1758 12.5875 16.1467 12.6567 16.1167C13.0992 15.9233 13.625 15.9825 13.9659 16.3233C14.0641 16.4216 14.1807 16.4995 14.309 16.5527C14.4373 16.6058 14.5749 16.6332 14.7138 16.6332C14.8527 16.6332 14.9902 16.6058 15.1186 16.5527C15.2469 16.4995 15.3635 16.4216 15.4617 16.3233L16.3234 15.4617C16.5215 15.2634 16.6328 14.9945 16.6328 14.7142C16.6328 14.4338 16.5215 14.165 16.3234 13.9667V13.9667C15.9817 13.625 15.9234 13.1 16.1159 12.6567C16.1467 12.5875 16.1759 12.5167 16.2042 12.4458C16.3809 11.9967 16.7942 11.6667 17.2759 11.6667C17.86 11.6667 18.3334 11.1933 18.3334 10.6092V9.39166C18.3334 8.8075 17.86 8.33416 17.2759 8.33416C16.7942 8.33416 16.3809 8.00416 16.2034 7.555C16.1754 7.48421 16.1463 7.41392 16.1159 7.34416C15.9242 6.90166 15.9825 6.37583 16.3234 6.03416C16.5215 5.83587 16.6328 5.567 16.6328 5.28666C16.6328 5.00633 16.5215 4.73746 16.3234 4.53916L15.4617 3.6775C15.2634 3.47934 14.9945 3.36803 14.7142 3.36803C14.4339 3.36803 14.165 3.47934 13.9667 3.6775V3.6775C13.625 4.01916 13.1 4.0775 12.6567 3.885C12.5869 3.85434 12.5166 3.82489 12.4459 3.79666C11.9967 3.61916 11.6667 3.20583 11.6667 2.725V2.72416Z" stroke="#5597E4" stroke-width="2"/>
<path d="M13.3334 10C13.3334 10.8841 12.9822 11.7319 12.357 12.357C11.7319 12.9821 10.8841 13.3333 10 13.3333C9.11597 13.3333 8.26812 12.9821 7.643 12.357C7.01788 11.7319 6.66669 10.8841 6.66669 10C6.66669 9.11594 7.01788 8.2681 7.643 7.64297C8.26812 7.01785 9.11597 6.66666 10 6.66666C10.8841 6.66666 11.7319 7.01785 12.357 7.64297C12.9822 8.2681 13.3334 9.11594 13.3334 10V10Z" stroke="#5597E4" stroke-width="2"/>
</svg>
