<svg width="24" height="21" viewBox="0 0 24 21" fill="none" xmlns="http://www.w3.org/2000/svg">
<g clip-path="url(#clip0)">
<path d="M18.3886 7.80131H17.8775V4.9808C17.8775 4.85612 17.8237 4.73656 17.7278 4.6484C17.632 4.56024 17.502 4.51071 17.3664 4.51071H5.09974C4.97872 4.51253 4.86092 4.47478 4.76732 4.40419C4.67373 4.3336 4.61041 4.23475 4.58863 4.12524V3.95601C4.61041 3.8465 4.67373 3.74765 4.76732 3.67706C4.86092 3.60647 4.97872 3.56873 5.09974 3.57054H17.1517C17.2873 3.57054 17.4173 3.52102 17.5132 3.43286C17.609 3.3447 17.6629 3.22513 17.6629 3.10046C17.6629 2.97578 17.609 2.85621 17.5132 2.76806C17.4173 2.6799 17.2873 2.63037 17.1517 2.63037H5.09974C4.69308 2.63037 4.30307 2.77895 4.01551 3.04343C3.72796 3.3079 3.56641 3.6666 3.56641 4.04063C3.56282 4.09699 3.56282 4.1535 3.56641 4.20986V13.8795C3.56842 14.1326 3.62461 14.3829 3.73178 14.616C3.83895 14.8491 3.995 15.0606 4.19101 15.2382C4.38703 15.4159 4.61917 15.5563 4.87419 15.6515C5.12921 15.7466 5.40211 15.7946 5.6773 15.7928H17.3664C17.502 15.7928 17.632 15.7432 17.7278 15.6551C17.8237 15.5669 17.8775 15.4474 17.8775 15.3227V12.5022H18.3886C18.5242 12.5022 18.6542 12.4526 18.75 12.3645C18.8459 12.2763 18.8997 12.1568 18.8997 12.0321V8.2714C18.8997 8.14672 18.8459 8.02715 18.75 7.939C18.6542 7.85084 18.5242 7.80131 18.3886 7.80131ZM16.8553 14.8526H5.6773C5.39302 14.8551 5.11916 14.7543 4.91528 14.5721C4.7114 14.3898 4.59401 14.1409 4.58863 13.8795V5.39447C4.75454 5.43869 4.92717 5.45775 5.09974 5.45088H16.8553V7.80131H13.2775C12.5997 7.80131 11.9497 8.04895 11.4705 8.48974C10.9912 8.93053 10.722 9.52837 10.722 10.1517C10.722 10.7751 10.9912 11.373 11.4705 11.8137C11.9497 12.2545 12.5997 12.5022 13.2775 12.5022H16.8553V14.8526ZM17.8775 11.562H13.2775C12.8709 11.562 12.4808 11.4134 12.1933 11.1489C11.9057 10.8845 11.7442 10.5258 11.7442 10.1517C11.7442 9.77772 11.9057 9.41901 12.1933 9.15454C12.4808 8.89006 12.8709 8.74148 13.2775 8.74148H17.8775V11.562Z" fill="#2F9EFF"/>
<path d="M13.7938 10.8568C14.2172 10.8568 14.5604 10.5411 14.5604 10.1517C14.5604 9.76223 14.2172 9.44653 13.7938 9.44653C13.3703 9.44653 13.0271 9.76223 13.0271 10.1517C13.0271 10.5411 13.3703 10.8568 13.7938 10.8568Z" fill="#2F9EFF"/>
<path d="M23.0715 13.3823C22.6003 12.9536 21.8657 12.9816 21.3705 13.3823L17.6812 16.343C17.23 16.7076 16.667 16.9039 16.084 16.9039H11.3605C11.0091 16.9039 10.7217 16.6154 10.7217 16.2629C10.7217 15.9103 11.0091 15.6218 11.3605 15.6218H14.4869C15.1218 15.6218 15.7127 15.1851 15.8165 14.5561C15.9483 13.7549 15.3334 13.0577 14.5548 13.0577H8.16624C7.08818 13.0577 6.04605 13.4303 5.20755 14.1114L3.35088 15.6218H1.13885C0.787484 15.6218 0.5 15.9103 0.5 16.2629V20.109C0.5 20.4616 0.787484 20.75 1.13885 20.75H15.3853C15.9642 20.75 16.5272 20.5537 16.9824 20.1891L23.0196 15.3414C23.6265 14.8566 23.6744 13.9271 23.0715 13.3823Z" fill="#2F9EFF"/>
</g>
<defs>
<clipPath id="clip0">
<rect width="23" height="20" fill="white" transform="translate(0.5 0.75)"/>
</clipPath>
</defs>
</svg>
