<svg width="20" height="20" viewBox="0 0 20 20" fill="none" xmlns="http://www.w3.org/2000/svg">
<path d="M7.50002 10C9.10835 10 10.4167 8.69166 10.4167 7.08333C10.4167 5.475 9.10835 4.16666 7.50002 4.16666C5.89169 4.16666 4.58335 5.475 4.58335 7.08333C4.58335 8.69166 5.89169 10 7.50002 10ZM7.50002 5.83333C8.19169 5.83333 8.75002 6.39166 8.75002 7.08333C8.75002 7.775 8.19169 8.33333 7.50002 8.33333C6.80835 8.33333 6.25002 7.775 6.25002 7.08333C6.25002 6.39166 6.80835 5.83333 7.50002 5.83333ZM7.54169 14.1667H3.97502C4.80002 13.75 6.22502 13.3333 7.50002 13.3333C7.59169 13.3333 7.69169 13.3417 7.78335 13.3417C8.06669 12.7333 8.55835 12.2333 9.15002 11.8333C8.54169 11.725 7.96669 11.6667 7.50002 11.6667C5.55002 11.6667 1.66669 12.6417 1.66669 14.5833V15.8333H7.50002V14.5833C7.50002 14.4417 7.51669 14.3 7.54169 14.1667ZM13.75 12.0833C12.2167 12.0833 9.16669 12.925 9.16669 14.5833V15.8333H18.3334V14.5833C18.3334 12.925 15.2834 12.0833 13.75 12.0833ZM14.7584 10.5667C15.3917 10.2083 15.8334 9.53333 15.8334 8.75C15.8334 8.19746 15.6139 7.66756 15.2232 7.27686C14.8325 6.88616 14.3026 6.66666 13.75 6.66666C13.1975 6.66666 12.6676 6.88616 12.2769 7.27686C11.8862 7.66756 11.6667 8.19746 11.6667 8.75C11.6667 9.53333 12.1084 10.2083 12.7417 10.5667C13.0417 10.7333 13.3834 10.8333 13.75 10.8333C14.1167 10.8333 14.4584 10.7333 14.7584 10.5667Z" fill="#5597E4"/>
</svg>
